<?xml version="1.0" standalone="no"?>
<!DOCTYPE svg PUBLIC "-//W3C//DTD SVG 20010904//EN"
 "http://www.w3.org/TR/2001/REC-SVG-20010904/DTD/svg10.dtd">
<svg version="1.0" xmlns="http://www.w3.org/2000/svg"
 width="160.000000pt" height="160.000000pt" viewBox="0 0 160.000000 160.000000"
 preserveAspectRatio="xMidYMid meet">
<metadata>
Created by potrace 1.14, written by Peter Selinger 2001-2017
</metadata>
<g transform="translate(0.000000,160.000000) scale(0.100000,-0.100000)"
fill="#000000" stroke="none">
<path d="M780 1544 c-25 -8 -57 -16 -72 -19 -38 -7 -69 -21 -99 -45 -19 -16
-43 -22 -105 -25 -143 -6 -215 -43 -194 -100 13 -34 37 -48 72 -41 18 3 46 8
62 10 15 3 37 8 47 11 13 4 17 2 14 -7 -2 -7 -40 -125 -84 -262 -44 -137 -87
-254 -96 -260 -8 -6 -16 -22 -18 -36 -2 -14 -9 -26 -15 -26 -7 -1 -17 -2 -23
-3 -6 0 -9 -10 -6 -22 3 -11 -1 -39 -10 -62 -8 -23 -16 -46 -17 -52 -7 -33
-20 -62 -35 -78 -15 -17 -14 -20 4 -34 19 -14 19 -15 -5 -11 -20 2 -24 -1 -22
-17 2 -15 -9 -25 -47 -42 -115 -53 -154 -191 -81 -292 40 -55 81 -75 157 -75
53 -1 67 3 105 29 100 71 122 221 43 295 -18 17 -22 27 -14 36 7 9 4 16 -12
27 l-21 15 23 4 c20 3 29 -8 66 -80 23 -45 40 -89 36 -98 -3 -8 4 -34 16 -57
l22 -42 344 0 345 0 11 -26 c13 -33 56 -75 89 -87 36 -14 103 -7 137 13 84 49
105 176 42 244 -17 18 -19 25 -9 31 30 19 -30 58 -99 65 -69 7 -146 -34 -180
-96 l-21 -36 -277 1 -278 1 -91 185 c-80 162 -89 186 -77 199 13 13 13 16 -3
28 -17 13 -17 14 8 17 18 2 27 49 11 61 -11 8 -6 33 26 130 22 66 65 199 95
295 31 96 62 177 68 181 7 4 23 2 37 -5 22 -12 41 -10 125 9 98 22 115 33 123
75 4 23 -17 68 -35 76 -28 12 -35 12 -82 -2z m-603 -1245 c1 -39 0 -40 -30
-36 -39 4 -43 17 -17 50 30 38 45 34 47 -14z m123 12 c0 -5 -9 -11 -20 -14
-22 -6 -26 3 -8 21 11 11 28 7 28 -7z m1073 -20 c18 -15 18 -16 -5 -22 -49
-14 -68 -10 -68 14 0 13 3 26 6 29 8 9 47 -3 67 -21z m-103 -11 c0 -11 -7 -20
-15 -20 -18 0 -19 12 -3 28 16 16 18 15 18 -8z m-954 -24 c3 -21 -15 -66 -28
-66 -4 0 -8 3 -8 8 0 4 -11 20 -26 35 -17 19 -21 28 -12 31 7 3 20 7 28 10 26
8 43 2 46 -18z m-176 -21 c11 -2 27 -8 35 -12 13 -8 12 -13 -10 -33 -22 -21
-27 -22 -40 -9 -18 18 -33 75 -16 65 6 -4 20 -9 31 -11z m1263 3 c2 -7 0 -25
-6 -40 -16 -48 -37 -31 -29 24 4 28 27 39 35 16z m-1149 -81 c-25 -14 -72 -19
-78 -8 -3 5 6 24 21 41 l27 33 23 -29 c20 -25 20 -30 7 -37z m1010 12 c-6 -11
-24 -2 -24 11 0 5 7 7 15 4 8 -4 12 -10 9 -15z m85 -8 c9 -16 7 -20 -13 -25
-37 -9 -58 2 -45 25 13 24 45 24 58 0z"/>
</g>
</svg>
